<mxfile host="65bd71144e">
    <diagram name="Page-1" id="lIomnUQifHrzfBeX8XeQ">
        <mxGraphModel dx="788" dy="862" grid="1" gridSize="10" guides="1" tooltips="1" connect="1" arrows="1" fold="1" page="1" pageScale="1" pageWidth="827" pageHeight="1169" math="0" shadow="0">
            <root>
                <mxCell id="0"/>
                <mxCell id="1" parent="0"/>
                <mxCell id="2hBCnKZ2Ra70iL2cCZ0h-111" value="" style="rounded=0;whiteSpace=wrap;html=1;fillColor=#f8cecc;strokeColor=#b85450;" parent="1" vertex="1">
                    <mxGeometry x="40" y="1555" width="40" height="20" as="geometry"/>
                </mxCell>
                <mxCell id="2hBCnKZ2Ra70iL2cCZ0h-112" value="" style="rounded=0;whiteSpace=wrap;html=1;fillColor=#f8cecc;strokeColor=#b85450;" parent="1" vertex="1">
                    <mxGeometry x="40" y="1605" width="40" height="20" as="geometry"/>
                </mxCell>
                <mxCell id="2hBCnKZ2Ra70iL2cCZ0h-113" value="" style="rounded=0;whiteSpace=wrap;html=1;fillColor=#f8cecc;strokeColor=#b85450;" parent="1" vertex="1">
                    <mxGeometry x="40" y="1655" width="40" height="20" as="geometry"/>
                </mxCell>
                <mxCell id="2hBCnKZ2Ra70iL2cCZ0h-114" value="" style="rounded=0;whiteSpace=wrap;html=1;fillColor=#f8cecc;strokeColor=#b85450;" parent="1" vertex="1">
                    <mxGeometry x="40" y="1705" width="40" height="20" as="geometry"/>
                </mxCell>
                <mxCell id="2hBCnKZ2Ra70iL2cCZ0h-1" value="" style="rounded=0;whiteSpace=wrap;html=1;" parent="1" vertex="1">
                    <mxGeometry x="120" y="270" width="120" height="210" as="geometry"/>
                </mxCell>
                <mxCell id="2hBCnKZ2Ra70iL2cCZ0h-2" value="3" style="rounded=0;whiteSpace=wrap;html=1;fillColor=#dae8fc;strokeColor=#6c8ebf;" parent="1" vertex="1">
                    <mxGeometry x="100" y="280" width="40" height="40" as="geometry"/>
                </mxCell>
                <mxCell id="2hBCnKZ2Ra70iL2cCZ0h-3" value="1" style="rounded=0;whiteSpace=wrap;html=1;fillColor=#dae8fc;strokeColor=#6c8ebf;" parent="1" vertex="1">
                    <mxGeometry x="100" y="330" width="40" height="40" as="geometry"/>
                </mxCell>
                <mxCell id="2hBCnKZ2Ra70iL2cCZ0h-4" value="2" style="rounded=0;whiteSpace=wrap;html=1;fillColor=#dae8fc;strokeColor=#6c8ebf;" parent="1" vertex="1">
                    <mxGeometry x="100" y="380" width="40" height="40" as="geometry"/>
                </mxCell>
                <mxCell id="2hBCnKZ2Ra70iL2cCZ0h-5" value="0" style="rounded=0;whiteSpace=wrap;html=1;fillColor=#dae8fc;strokeColor=#6c8ebf;" parent="1" vertex="1">
                    <mxGeometry x="100" y="430" width="40" height="40" as="geometry"/>
                </mxCell>
                <mxCell id="2hBCnKZ2Ra70iL2cCZ0h-6" value="3" style="rounded=0;whiteSpace=wrap;html=1;fillColor=#fff2cc;strokeColor=#d6b656;" parent="1" vertex="1">
                    <mxGeometry x="220" y="280" width="40" height="40" as="geometry"/>
                </mxCell>
                <mxCell id="2hBCnKZ2Ra70iL2cCZ0h-7" value="1" style="rounded=0;whiteSpace=wrap;html=1;fillColor=#fff2cc;strokeColor=#d6b656;" parent="1" vertex="1">
                    <mxGeometry x="220" y="330" width="40" height="40" as="geometry"/>
                </mxCell>
                <mxCell id="2hBCnKZ2Ra70iL2cCZ0h-8" value="2" style="rounded=0;whiteSpace=wrap;html=1;fillColor=#fff2cc;strokeColor=#d6b656;" parent="1" vertex="1">
                    <mxGeometry x="220" y="380" width="40" height="40" as="geometry"/>
                </mxCell>
                <mxCell id="2hBCnKZ2Ra70iL2cCZ0h-9" value="0" style="rounded=0;whiteSpace=wrap;html=1;fillColor=#fff2cc;strokeColor=#d6b656;" parent="1" vertex="1">
                    <mxGeometry x="220" y="430" width="40" height="40" as="geometry"/>
                </mxCell>
                <mxCell id="2hBCnKZ2Ra70iL2cCZ0h-10" value="" style="rounded=0;whiteSpace=wrap;html=1;fillColor=#f8cecc;strokeColor=#b85450;" parent="1" vertex="1">
                    <mxGeometry x="40" y="275" width="40" height="40" as="geometry"/>
                </mxCell>
                <mxCell id="2hBCnKZ2Ra70iL2cCZ0h-11" value="" style="rounded=0;whiteSpace=wrap;html=1;fillColor=#f8cecc;strokeColor=#b85450;" parent="1" vertex="1">
                    <mxGeometry x="40" y="325" width="40" height="40" as="geometry"/>
                </mxCell>
                <mxCell id="2hBCnKZ2Ra70iL2cCZ0h-12" value="" style="rounded=0;whiteSpace=wrap;html=1;fillColor=#f8cecc;strokeColor=#b85450;" parent="1" vertex="1">
                    <mxGeometry x="40" y="375" width="40" height="40" as="geometry"/>
                </mxCell>
                <mxCell id="2hBCnKZ2Ra70iL2cCZ0h-13" value="" style="rounded=0;whiteSpace=wrap;html=1;fillColor=#f8cecc;strokeColor=#b85450;" parent="1" vertex="1">
                    <mxGeometry x="40" y="425" width="40" height="40" as="geometry"/>
                </mxCell>
                <mxCell id="2hBCnKZ2Ra70iL2cCZ0h-19" value="Full BusWidth, Dual Channel&lt;br&gt;256 Lanes, dual rank, &lt;br&gt;204.8GB/s up to 64GiB" style="text;html=1;align=center;verticalAlign=middle;resizable=0;points=[];autosize=1;strokeColor=none;fillColor=none;" parent="1" vertex="1">
                    <mxGeometry x="95" y="190" width="180" height="60" as="geometry"/>
                </mxCell>
                <mxCell id="2hBCnKZ2Ra70iL2cCZ0h-20" value="" style="rounded=0;whiteSpace=wrap;html=1;" parent="1" vertex="1">
                    <mxGeometry x="480" y="270" width="120" height="210" as="geometry"/>
                </mxCell>
                <mxCell id="2hBCnKZ2Ra70iL2cCZ0h-21" value="3" style="rounded=0;whiteSpace=wrap;html=1;fillColor=#dae8fc;strokeColor=#6c8ebf;" parent="1" vertex="1">
                    <mxGeometry x="460" y="280" width="40" height="40" as="geometry"/>
                </mxCell>
                <mxCell id="2hBCnKZ2Ra70iL2cCZ0h-22" value="1" style="rounded=0;whiteSpace=wrap;html=1;fillColor=#dae8fc;strokeColor=#6c8ebf;" parent="1" vertex="1">
                    <mxGeometry x="460" y="330" width="40" height="40" as="geometry"/>
                </mxCell>
                <mxCell id="2hBCnKZ2Ra70iL2cCZ0h-23" value="2" style="rounded=0;whiteSpace=wrap;html=1;fillColor=#dae8fc;strokeColor=#6c8ebf;" parent="1" vertex="1">
                    <mxGeometry x="460" y="380" width="40" height="40" as="geometry"/>
                </mxCell>
                <mxCell id="2hBCnKZ2Ra70iL2cCZ0h-24" value="0" style="rounded=0;whiteSpace=wrap;html=1;fillColor=#dae8fc;strokeColor=#6c8ebf;" parent="1" vertex="1">
                    <mxGeometry x="460" y="430" width="40" height="40" as="geometry"/>
                </mxCell>
                <mxCell id="2hBCnKZ2Ra70iL2cCZ0h-25" value="3" style="rounded=0;whiteSpace=wrap;html=1;fillColor=#fff2cc;strokeColor=#d6b656;" parent="1" vertex="1">
                    <mxGeometry x="580" y="280" width="40" height="40" as="geometry"/>
                </mxCell>
                <mxCell id="2hBCnKZ2Ra70iL2cCZ0h-26" value="1" style="rounded=0;whiteSpace=wrap;html=1;fillColor=#fff2cc;strokeColor=#d6b656;" parent="1" vertex="1">
                    <mxGeometry x="580" y="330" width="40" height="40" as="geometry"/>
                </mxCell>
                <mxCell id="2hBCnKZ2Ra70iL2cCZ0h-27" value="2" style="rounded=0;whiteSpace=wrap;html=1;fillColor=#fff2cc;strokeColor=#d6b656;" parent="1" vertex="1">
                    <mxGeometry x="580" y="380" width="40" height="40" as="geometry"/>
                </mxCell>
                <mxCell id="2hBCnKZ2Ra70iL2cCZ0h-28" value="0" style="rounded=0;whiteSpace=wrap;html=1;fillColor=#fff2cc;strokeColor=#d6b656;" parent="1" vertex="1">
                    <mxGeometry x="580" y="430" width="40" height="40" as="geometry"/>
                </mxCell>
                <mxCell id="2hBCnKZ2Ra70iL2cCZ0h-29" value="" style="rounded=0;whiteSpace=wrap;html=1;fillColor=#f8cecc;strokeColor=#b85450;" parent="1" vertex="1">
                    <mxGeometry x="400" y="280" width="40" height="40" as="geometry"/>
                </mxCell>
                <mxCell id="2hBCnKZ2Ra70iL2cCZ0h-30" value="" style="rounded=0;whiteSpace=wrap;html=1;fillColor=#f8cecc;strokeColor=#b85450;" parent="1" vertex="1">
                    <mxGeometry x="400" y="330" width="40" height="40" as="geometry"/>
                </mxCell>
                <mxCell id="2hBCnKZ2Ra70iL2cCZ0h-31" value="" style="rounded=0;whiteSpace=wrap;html=1;fillColor=#f8cecc;strokeColor=#b85450;" parent="1" vertex="1">
                    <mxGeometry x="400" y="380" width="40" height="40" as="geometry"/>
                </mxCell>
                <mxCell id="2hBCnKZ2Ra70iL2cCZ0h-32" value="" style="rounded=0;whiteSpace=wrap;html=1;fillColor=#f8cecc;strokeColor=#b85450;" parent="1" vertex="1">
                    <mxGeometry x="400" y="430" width="40" height="40" as="geometry"/>
                </mxCell>
                <mxCell id="2hBCnKZ2Ra70iL2cCZ0h-33" value="" style="rounded=0;whiteSpace=wrap;html=1;fillColor=#f8cecc;strokeColor=#b85450;" parent="1" vertex="1">
                    <mxGeometry x="640" y="280" width="40" height="40" as="geometry"/>
                </mxCell>
                <mxCell id="2hBCnKZ2Ra70iL2cCZ0h-34" value="" style="rounded=0;whiteSpace=wrap;html=1;fillColor=#f8cecc;strokeColor=#b85450;" parent="1" vertex="1">
                    <mxGeometry x="640" y="330" width="40" height="40" as="geometry"/>
                </mxCell>
                <mxCell id="2hBCnKZ2Ra70iL2cCZ0h-35" value="" style="rounded=0;whiteSpace=wrap;html=1;fillColor=#f8cecc;strokeColor=#b85450;" parent="1" vertex="1">
                    <mxGeometry x="640" y="380" width="40" height="40" as="geometry"/>
                </mxCell>
                <mxCell id="2hBCnKZ2Ra70iL2cCZ0h-36" value="" style="rounded=0;whiteSpace=wrap;html=1;fillColor=#f8cecc;strokeColor=#b85450;" parent="1" vertex="1">
                    <mxGeometry x="640" y="430" width="40" height="40" as="geometry"/>
                </mxCell>
                <mxCell id="2hBCnKZ2Ra70iL2cCZ0h-37" value="" style="rounded=0;whiteSpace=wrap;html=1;fillColor=#f8cecc;strokeColor=#b85450;" parent="1" vertex="1">
                    <mxGeometry x="50" y="285" width="40" height="40" as="geometry"/>
                </mxCell>
                <mxCell id="2hBCnKZ2Ra70iL2cCZ0h-39" value="" style="rounded=0;whiteSpace=wrap;html=1;fillColor=#f8cecc;strokeColor=#b85450;" parent="1" vertex="1">
                    <mxGeometry x="50" y="335" width="40" height="40" as="geometry"/>
                </mxCell>
                <mxCell id="2hBCnKZ2Ra70iL2cCZ0h-40" value="" style="rounded=0;whiteSpace=wrap;html=1;fillColor=#f8cecc;strokeColor=#b85450;" parent="1" vertex="1">
                    <mxGeometry x="50" y="385" width="40" height="40" as="geometry"/>
                </mxCell>
                <mxCell id="2hBCnKZ2Ra70iL2cCZ0h-41" value="" style="rounded=0;whiteSpace=wrap;html=1;fillColor=#f8cecc;strokeColor=#b85450;" parent="1" vertex="1">
                    <mxGeometry x="50" y="435" width="40" height="40" as="geometry"/>
                </mxCell>
                <mxCell id="2hBCnKZ2Ra70iL2cCZ0h-42" value="" style="rounded=0;whiteSpace=wrap;html=1;fillColor=#f8cecc;strokeColor=#b85450;" parent="1" vertex="1">
                    <mxGeometry x="280" y="275" width="40" height="40" as="geometry"/>
                </mxCell>
                <mxCell id="2hBCnKZ2Ra70iL2cCZ0h-43" value="" style="rounded=0;whiteSpace=wrap;html=1;fillColor=#f8cecc;strokeColor=#b85450;" parent="1" vertex="1">
                    <mxGeometry x="280" y="325" width="40" height="40" as="geometry"/>
                </mxCell>
                <mxCell id="2hBCnKZ2Ra70iL2cCZ0h-44" value="" style="rounded=0;whiteSpace=wrap;html=1;fillColor=#f8cecc;strokeColor=#b85450;" parent="1" vertex="1">
                    <mxGeometry x="280" y="375" width="40" height="40" as="geometry"/>
                </mxCell>
                <mxCell id="2hBCnKZ2Ra70iL2cCZ0h-45" value="" style="rounded=0;whiteSpace=wrap;html=1;fillColor=#f8cecc;strokeColor=#b85450;" parent="1" vertex="1">
                    <mxGeometry x="280" y="425" width="40" height="40" as="geometry"/>
                </mxCell>
                <mxCell id="2hBCnKZ2Ra70iL2cCZ0h-46" value="" style="rounded=0;whiteSpace=wrap;html=1;fillColor=#f8cecc;strokeColor=#b85450;" parent="1" vertex="1">
                    <mxGeometry x="290" y="285" width="40" height="40" as="geometry"/>
                </mxCell>
                <mxCell id="2hBCnKZ2Ra70iL2cCZ0h-47" value="" style="rounded=0;whiteSpace=wrap;html=1;fillColor=#f8cecc;strokeColor=#b85450;" parent="1" vertex="1">
                    <mxGeometry x="290" y="335" width="40" height="40" as="geometry"/>
                </mxCell>
                <mxCell id="2hBCnKZ2Ra70iL2cCZ0h-48" value="" style="rounded=0;whiteSpace=wrap;html=1;fillColor=#f8cecc;strokeColor=#b85450;" parent="1" vertex="1">
                    <mxGeometry x="290" y="385" width="40" height="40" as="geometry"/>
                </mxCell>
                <mxCell id="2hBCnKZ2Ra70iL2cCZ0h-49" value="" style="rounded=0;whiteSpace=wrap;html=1;fillColor=#f8cecc;strokeColor=#b85450;" parent="1" vertex="1">
                    <mxGeometry x="290" y="435" width="40" height="40" as="geometry"/>
                </mxCell>
                <mxCell id="2hBCnKZ2Ra70iL2cCZ0h-50" value="Full BusWidth, Dual Channel&lt;br&gt;256 Lanes, single rank, &lt;br&gt;204.8GB/s up to 32GiB" style="text;html=1;align=center;verticalAlign=middle;resizable=0;points=[];autosize=1;strokeColor=none;fillColor=none;" parent="1" vertex="1">
                    <mxGeometry x="450" y="190" width="180" height="60" as="geometry"/>
                </mxCell>
                <mxCell id="2hBCnKZ2Ra70iL2cCZ0h-51" value="" style="rounded=0;whiteSpace=wrap;html=1;" parent="1" vertex="1">
                    <mxGeometry x="480" y="1530" width="120" height="210" as="geometry"/>
                </mxCell>
                <mxCell id="2hBCnKZ2Ra70iL2cCZ0h-52" value="" style="rounded=0;whiteSpace=wrap;html=1;" parent="1" vertex="1">
                    <mxGeometry x="460" y="1540" width="40" height="40" as="geometry"/>
                </mxCell>
                <mxCell id="2hBCnKZ2Ra70iL2cCZ0h-53" value="" style="rounded=0;whiteSpace=wrap;html=1;" parent="1" vertex="1">
                    <mxGeometry x="460" y="1590" width="40" height="40" as="geometry"/>
                </mxCell>
                <mxCell id="2hBCnKZ2Ra70iL2cCZ0h-54" value="" style="rounded=0;whiteSpace=wrap;html=1;" parent="1" vertex="1">
                    <mxGeometry x="460" y="1640" width="40" height="40" as="geometry"/>
                </mxCell>
                <mxCell id="2hBCnKZ2Ra70iL2cCZ0h-55" value="" style="rounded=0;whiteSpace=wrap;html=1;" parent="1" vertex="1">
                    <mxGeometry x="460" y="1690" width="40" height="40" as="geometry"/>
                </mxCell>
                <mxCell id="2hBCnKZ2Ra70iL2cCZ0h-56" value="" style="rounded=0;whiteSpace=wrap;html=1;" parent="1" vertex="1">
                    <mxGeometry x="580" y="1540" width="40" height="40" as="geometry"/>
                </mxCell>
                <mxCell id="2hBCnKZ2Ra70iL2cCZ0h-57" value="" style="rounded=0;whiteSpace=wrap;html=1;" parent="1" vertex="1">
                    <mxGeometry x="580" y="1590" width="40" height="40" as="geometry"/>
                </mxCell>
                <mxCell id="2hBCnKZ2Ra70iL2cCZ0h-58" value="" style="rounded=0;whiteSpace=wrap;html=1;" parent="1" vertex="1">
                    <mxGeometry x="580" y="1640" width="40" height="40" as="geometry"/>
                </mxCell>
                <mxCell id="2hBCnKZ2Ra70iL2cCZ0h-59" value="" style="rounded=0;whiteSpace=wrap;html=1;" parent="1" vertex="1">
                    <mxGeometry x="580" y="1690" width="40" height="40" as="geometry"/>
                </mxCell>
                <mxCell id="2hBCnKZ2Ra70iL2cCZ0h-68" value="Half BusWidth, Single Channel&lt;br&gt;128 Lanes, single rank, &lt;br&gt;102.4GB/s up to 16GiB" style="text;html=1;align=center;verticalAlign=middle;resizable=0;points=[];autosize=1;strokeColor=none;fillColor=none;" parent="1" vertex="1">
                    <mxGeometry x="445" y="1450" width="190" height="60" as="geometry"/>
                </mxCell>
                <mxCell id="2hBCnKZ2Ra70iL2cCZ0h-69" value="" style="rounded=0;whiteSpace=wrap;html=1;" parent="1" vertex="1">
                    <mxGeometry x="120" y="1530" width="120" height="210" as="geometry"/>
                </mxCell>
                <mxCell id="2hBCnKZ2Ra70iL2cCZ0h-70" value="" style="rounded=0;whiteSpace=wrap;html=1;" parent="1" vertex="1">
                    <mxGeometry x="100" y="1540" width="40" height="40" as="geometry"/>
                </mxCell>
                <mxCell id="2hBCnKZ2Ra70iL2cCZ0h-71" value="" style="rounded=0;whiteSpace=wrap;html=1;" parent="1" vertex="1">
                    <mxGeometry x="100" y="1590" width="40" height="40" as="geometry"/>
                </mxCell>
                <mxCell id="2hBCnKZ2Ra70iL2cCZ0h-72" value="" style="rounded=0;whiteSpace=wrap;html=1;" parent="1" vertex="1">
                    <mxGeometry x="100" y="1640" width="40" height="40" as="geometry"/>
                </mxCell>
                <mxCell id="2hBCnKZ2Ra70iL2cCZ0h-73" value="" style="rounded=0;whiteSpace=wrap;html=1;" parent="1" vertex="1">
                    <mxGeometry x="100" y="1690" width="40" height="40" as="geometry"/>
                </mxCell>
                <mxCell id="2hBCnKZ2Ra70iL2cCZ0h-74" value="" style="rounded=0;whiteSpace=wrap;html=1;" parent="1" vertex="1">
                    <mxGeometry x="220" y="1540" width="40" height="40" as="geometry"/>
                </mxCell>
                <mxCell id="2hBCnKZ2Ra70iL2cCZ0h-75" value="" style="rounded=0;whiteSpace=wrap;html=1;" parent="1" vertex="1">
                    <mxGeometry x="220" y="1590" width="40" height="40" as="geometry"/>
                </mxCell>
                <mxCell id="2hBCnKZ2Ra70iL2cCZ0h-76" value="" style="rounded=0;whiteSpace=wrap;html=1;" parent="1" vertex="1">
                    <mxGeometry x="220" y="1640" width="40" height="40" as="geometry"/>
                </mxCell>
                <mxCell id="2hBCnKZ2Ra70iL2cCZ0h-77" value="" style="rounded=0;whiteSpace=wrap;html=1;" parent="1" vertex="1">
                    <mxGeometry x="220" y="1690" width="40" height="40" as="geometry"/>
                </mxCell>
                <mxCell id="2hBCnKZ2Ra70iL2cCZ0h-82" value="Half BusWidth, Single Channel&lt;br&gt;128 Lanes, dual rank, &lt;br&gt;102.4GB/s up to 32GiB" style="text;html=1;align=center;verticalAlign=middle;resizable=0;points=[];autosize=1;strokeColor=none;fillColor=none;" parent="1" vertex="1">
                    <mxGeometry x="90" y="1450" width="190" height="60" as="geometry"/>
                </mxCell>
                <mxCell id="2hBCnKZ2Ra70iL2cCZ0h-95" value="" style="rounded=0;whiteSpace=wrap;html=1;fillColor=#dae8fc;strokeColor=#6c8ebf;" parent="1" vertex="1">
                    <mxGeometry x="100" y="1560" width="40" height="20" as="geometry"/>
                </mxCell>
                <mxCell id="2hBCnKZ2Ra70iL2cCZ0h-96" value="" style="rounded=0;whiteSpace=wrap;html=1;fillColor=#dae8fc;strokeColor=#6c8ebf;" parent="1" vertex="1">
                    <mxGeometry x="100" y="1610" width="40" height="20" as="geometry"/>
                </mxCell>
                <mxCell id="2hBCnKZ2Ra70iL2cCZ0h-97" value="" style="rounded=0;whiteSpace=wrap;html=1;fillColor=#dae8fc;strokeColor=#6c8ebf;" parent="1" vertex="1">
                    <mxGeometry x="100" y="1660" width="40" height="20" as="geometry"/>
                </mxCell>
                <mxCell id="2hBCnKZ2Ra70iL2cCZ0h-98" value="" style="rounded=0;whiteSpace=wrap;html=1;fillColor=#dae8fc;strokeColor=#6c8ebf;" parent="1" vertex="1">
                    <mxGeometry x="100" y="1710" width="40" height="20" as="geometry"/>
                </mxCell>
                <mxCell id="2hBCnKZ2Ra70iL2cCZ0h-99" value="" style="rounded=0;whiteSpace=wrap;html=1;fillColor=#fff2cc;strokeColor=#d6b656;" parent="1" vertex="1">
                    <mxGeometry x="220" y="1560" width="40" height="20" as="geometry"/>
                </mxCell>
                <mxCell id="2hBCnKZ2Ra70iL2cCZ0h-100" value="" style="rounded=0;whiteSpace=wrap;html=1;fillColor=#fff2cc;strokeColor=#d6b656;" parent="1" vertex="1">
                    <mxGeometry x="220" y="1610" width="40" height="20" as="geometry"/>
                </mxCell>
                <mxCell id="2hBCnKZ2Ra70iL2cCZ0h-101" value="" style="rounded=0;whiteSpace=wrap;html=1;fillColor=#fff2cc;strokeColor=#d6b656;" parent="1" vertex="1">
                    <mxGeometry x="220" y="1660" width="40" height="20" as="geometry"/>
                </mxCell>
                <mxCell id="2hBCnKZ2Ra70iL2cCZ0h-102" value="" style="rounded=0;whiteSpace=wrap;html=1;fillColor=#fff2cc;strokeColor=#d6b656;" parent="1" vertex="1">
                    <mxGeometry x="220" y="1710" width="40" height="20" as="geometry"/>
                </mxCell>
                <mxCell id="2hBCnKZ2Ra70iL2cCZ0h-107" value="" style="rounded=0;whiteSpace=wrap;html=1;fillColor=#f8cecc;strokeColor=#b85450;" parent="1" vertex="1">
                    <mxGeometry x="50" y="1565" width="40" height="20" as="geometry"/>
                </mxCell>
                <mxCell id="2hBCnKZ2Ra70iL2cCZ0h-108" value="" style="rounded=0;whiteSpace=wrap;html=1;fillColor=#f8cecc;strokeColor=#b85450;" parent="1" vertex="1">
                    <mxGeometry x="50" y="1615" width="40" height="20" as="geometry"/>
                </mxCell>
                <mxCell id="2hBCnKZ2Ra70iL2cCZ0h-109" value="" style="rounded=0;whiteSpace=wrap;html=1;fillColor=#f8cecc;strokeColor=#b85450;" parent="1" vertex="1">
                    <mxGeometry x="50" y="1665" width="40" height="20" as="geometry"/>
                </mxCell>
                <mxCell id="2hBCnKZ2Ra70iL2cCZ0h-110" value="" style="rounded=0;whiteSpace=wrap;html=1;fillColor=#f8cecc;strokeColor=#b85450;" parent="1" vertex="1">
                    <mxGeometry x="50" y="1715" width="40" height="20" as="geometry"/>
                </mxCell>
                <mxCell id="2hBCnKZ2Ra70iL2cCZ0h-135" value="" style="rounded=0;whiteSpace=wrap;html=1;fillColor=#f8cecc;strokeColor=#b85450;" parent="1" vertex="1">
                    <mxGeometry x="270" y="1550" width="40" height="20" as="geometry"/>
                </mxCell>
                <mxCell id="2hBCnKZ2Ra70iL2cCZ0h-136" value="" style="rounded=0;whiteSpace=wrap;html=1;fillColor=#f8cecc;strokeColor=#b85450;" parent="1" vertex="1">
                    <mxGeometry x="270" y="1600" width="40" height="20" as="geometry"/>
                </mxCell>
                <mxCell id="2hBCnKZ2Ra70iL2cCZ0h-137" value="" style="rounded=0;whiteSpace=wrap;html=1;fillColor=#f8cecc;strokeColor=#b85450;" parent="1" vertex="1">
                    <mxGeometry x="270" y="1650" width="40" height="20" as="geometry"/>
                </mxCell>
                <mxCell id="2hBCnKZ2Ra70iL2cCZ0h-138" value="" style="rounded=0;whiteSpace=wrap;html=1;fillColor=#f8cecc;strokeColor=#b85450;" parent="1" vertex="1">
                    <mxGeometry x="270" y="1700" width="40" height="20" as="geometry"/>
                </mxCell>
                <mxCell id="2hBCnKZ2Ra70iL2cCZ0h-143" value="" style="rounded=0;whiteSpace=wrap;html=1;fillColor=#f8cecc;strokeColor=#b85450;" parent="1" vertex="1">
                    <mxGeometry x="280" y="1560" width="40" height="20" as="geometry"/>
                </mxCell>
                <mxCell id="2hBCnKZ2Ra70iL2cCZ0h-144" value="" style="rounded=0;whiteSpace=wrap;html=1;fillColor=#f8cecc;strokeColor=#b85450;" parent="1" vertex="1">
                    <mxGeometry x="280" y="1610" width="40" height="20" as="geometry"/>
                </mxCell>
                <mxCell id="2hBCnKZ2Ra70iL2cCZ0h-145" value="" style="rounded=0;whiteSpace=wrap;html=1;fillColor=#f8cecc;strokeColor=#b85450;" parent="1" vertex="1">
                    <mxGeometry x="280" y="1660" width="40" height="20" as="geometry"/>
                </mxCell>
                <mxCell id="2hBCnKZ2Ra70iL2cCZ0h-146" value="" style="rounded=0;whiteSpace=wrap;html=1;fillColor=#f8cecc;strokeColor=#b85450;" parent="1" vertex="1">
                    <mxGeometry x="280" y="1710" width="40" height="20" as="geometry"/>
                </mxCell>
                <mxCell id="2hBCnKZ2Ra70iL2cCZ0h-147" value="" style="rounded=0;whiteSpace=wrap;html=1;fillColor=#dae8fc;strokeColor=#6c8ebf;" parent="1" vertex="1">
                    <mxGeometry x="460" y="1560" width="40" height="20" as="geometry"/>
                </mxCell>
                <mxCell id="2hBCnKZ2Ra70iL2cCZ0h-148" value="" style="rounded=0;whiteSpace=wrap;html=1;fillColor=#dae8fc;strokeColor=#6c8ebf;" parent="1" vertex="1">
                    <mxGeometry x="460" y="1610" width="40" height="20" as="geometry"/>
                </mxCell>
                <mxCell id="2hBCnKZ2Ra70iL2cCZ0h-149" value="" style="rounded=0;whiteSpace=wrap;html=1;fillColor=#dae8fc;strokeColor=#6c8ebf;" parent="1" vertex="1">
                    <mxGeometry x="460" y="1660" width="40" height="20" as="geometry"/>
                </mxCell>
                <mxCell id="2hBCnKZ2Ra70iL2cCZ0h-150" value="" style="rounded=0;whiteSpace=wrap;html=1;fillColor=#dae8fc;strokeColor=#6c8ebf;" parent="1" vertex="1">
                    <mxGeometry x="460" y="1710" width="40" height="20" as="geometry"/>
                </mxCell>
                <mxCell id="2hBCnKZ2Ra70iL2cCZ0h-151" value="" style="rounded=0;whiteSpace=wrap;html=1;fillColor=#fff2cc;strokeColor=#d6b656;" parent="1" vertex="1">
                    <mxGeometry x="580" y="1560" width="40" height="20" as="geometry"/>
                </mxCell>
                <mxCell id="2hBCnKZ2Ra70iL2cCZ0h-152" value="" style="rounded=0;whiteSpace=wrap;html=1;fillColor=#fff2cc;strokeColor=#d6b656;" parent="1" vertex="1">
                    <mxGeometry x="580" y="1610" width="40" height="20" as="geometry"/>
                </mxCell>
                <mxCell id="2hBCnKZ2Ra70iL2cCZ0h-153" value="" style="rounded=0;whiteSpace=wrap;html=1;fillColor=#fff2cc;strokeColor=#d6b656;" parent="1" vertex="1">
                    <mxGeometry x="580" y="1660" width="40" height="20" as="geometry"/>
                </mxCell>
                <mxCell id="2hBCnKZ2Ra70iL2cCZ0h-154" value="" style="rounded=0;whiteSpace=wrap;html=1;fillColor=#fff2cc;strokeColor=#d6b656;" parent="1" vertex="1">
                    <mxGeometry x="580" y="1710" width="40" height="20" as="geometry"/>
                </mxCell>
                <mxCell id="2hBCnKZ2Ra70iL2cCZ0h-155" value="" style="rounded=0;whiteSpace=wrap;html=1;fillColor=#f8cecc;strokeColor=#b85450;" parent="1" vertex="1">
                    <mxGeometry x="640" y="1560" width="40" height="20" as="geometry"/>
                </mxCell>
                <mxCell id="2hBCnKZ2Ra70iL2cCZ0h-156" value="" style="rounded=0;whiteSpace=wrap;html=1;fillColor=#f8cecc;strokeColor=#b85450;" parent="1" vertex="1">
                    <mxGeometry x="640" y="1610" width="40" height="20" as="geometry"/>
                </mxCell>
                <mxCell id="2hBCnKZ2Ra70iL2cCZ0h-157" value="" style="rounded=0;whiteSpace=wrap;html=1;fillColor=#f8cecc;strokeColor=#b85450;" parent="1" vertex="1">
                    <mxGeometry x="640" y="1660" width="40" height="20" as="geometry"/>
                </mxCell>
                <mxCell id="2hBCnKZ2Ra70iL2cCZ0h-158" value="" style="rounded=0;whiteSpace=wrap;html=1;fillColor=#f8cecc;strokeColor=#b85450;" parent="1" vertex="1">
                    <mxGeometry x="640" y="1710" width="40" height="20" as="geometry"/>
                </mxCell>
                <mxCell id="2hBCnKZ2Ra70iL2cCZ0h-159" value="" style="rounded=0;whiteSpace=wrap;html=1;fillColor=#f8cecc;strokeColor=#b85450;" parent="1" vertex="1">
                    <mxGeometry x="400" y="1560" width="40" height="20" as="geometry"/>
                </mxCell>
                <mxCell id="2hBCnKZ2Ra70iL2cCZ0h-160" value="" style="rounded=0;whiteSpace=wrap;html=1;fillColor=#f8cecc;strokeColor=#b85450;" parent="1" vertex="1">
                    <mxGeometry x="400" y="1610" width="40" height="20" as="geometry"/>
                </mxCell>
                <mxCell id="2hBCnKZ2Ra70iL2cCZ0h-161" value="" style="rounded=0;whiteSpace=wrap;html=1;fillColor=#f8cecc;strokeColor=#b85450;" parent="1" vertex="1">
                    <mxGeometry x="400" y="1660" width="40" height="20" as="geometry"/>
                </mxCell>
                <mxCell id="2hBCnKZ2Ra70iL2cCZ0h-162" value="" style="rounded=0;whiteSpace=wrap;html=1;fillColor=#f8cecc;strokeColor=#b85450;" parent="1" vertex="1">
                    <mxGeometry x="400" y="1710" width="40" height="20" as="geometry"/>
                </mxCell>
                <mxCell id="2hBCnKZ2Ra70iL2cCZ0h-168" value="" style="rounded=0;whiteSpace=wrap;html=1;fillColor=#f8cecc;strokeColor=#b85450;" parent="1" vertex="1">
                    <mxGeometry x="40" y="1915" width="40" height="20" as="geometry"/>
                </mxCell>
                <mxCell id="2hBCnKZ2Ra70iL2cCZ0h-170" value="" style="rounded=0;whiteSpace=wrap;html=1;fillColor=#f8cecc;strokeColor=#b85450;" parent="1" vertex="1">
                    <mxGeometry x="40" y="2015" width="40" height="20" as="geometry"/>
                </mxCell>
                <mxCell id="2hBCnKZ2Ra70iL2cCZ0h-171" value="" style="rounded=0;whiteSpace=wrap;html=1;" parent="1" vertex="1">
                    <mxGeometry x="480" y="1840" width="120" height="210" as="geometry"/>
                </mxCell>
                <mxCell id="2hBCnKZ2Ra70iL2cCZ0h-172" value="" style="rounded=0;whiteSpace=wrap;html=1;" parent="1" vertex="1">
                    <mxGeometry x="460" y="1850" width="40" height="40" as="geometry"/>
                </mxCell>
                <mxCell id="2hBCnKZ2Ra70iL2cCZ0h-173" value="" style="rounded=0;whiteSpace=wrap;html=1;" parent="1" vertex="1">
                    <mxGeometry x="460" y="1900" width="40" height="40" as="geometry"/>
                </mxCell>
                <mxCell id="2hBCnKZ2Ra70iL2cCZ0h-174" value="" style="rounded=0;whiteSpace=wrap;html=1;" parent="1" vertex="1">
                    <mxGeometry x="460" y="1950" width="40" height="40" as="geometry"/>
                </mxCell>
                <mxCell id="2hBCnKZ2Ra70iL2cCZ0h-175" value="" style="rounded=0;whiteSpace=wrap;html=1;" parent="1" vertex="1">
                    <mxGeometry x="460" y="2000" width="40" height="40" as="geometry"/>
                </mxCell>
                <mxCell id="2hBCnKZ2Ra70iL2cCZ0h-176" value="" style="rounded=0;whiteSpace=wrap;html=1;" parent="1" vertex="1">
                    <mxGeometry x="580" y="1850" width="40" height="40" as="geometry"/>
                </mxCell>
                <mxCell id="2hBCnKZ2Ra70iL2cCZ0h-177" value="" style="rounded=0;whiteSpace=wrap;html=1;" parent="1" vertex="1">
                    <mxGeometry x="580" y="1900" width="40" height="40" as="geometry"/>
                </mxCell>
                <mxCell id="2hBCnKZ2Ra70iL2cCZ0h-178" value="" style="rounded=0;whiteSpace=wrap;html=1;" parent="1" vertex="1">
                    <mxGeometry x="580" y="1950" width="40" height="40" as="geometry"/>
                </mxCell>
                <mxCell id="2hBCnKZ2Ra70iL2cCZ0h-179" value="" style="rounded=0;whiteSpace=wrap;html=1;" parent="1" vertex="1">
                    <mxGeometry x="580" y="2000" width="40" height="40" as="geometry"/>
                </mxCell>
                <mxCell id="2hBCnKZ2Ra70iL2cCZ0h-188" value="Half BusWidth, Single Channel&lt;br&gt;64 Lanes, single rank, &lt;br&gt;51.2GB/s up to 8GiB" style="text;html=1;align=center;verticalAlign=middle;resizable=0;points=[];autosize=1;strokeColor=none;fillColor=none;" parent="1" vertex="1">
                    <mxGeometry x="445" y="1760" width="190" height="60" as="geometry"/>
                </mxCell>
                <mxCell id="2hBCnKZ2Ra70iL2cCZ0h-189" value="" style="rounded=0;whiteSpace=wrap;html=1;" parent="1" vertex="1">
                    <mxGeometry x="120" y="1840" width="120" height="210" as="geometry"/>
                </mxCell>
                <mxCell id="2hBCnKZ2Ra70iL2cCZ0h-190" value="" style="rounded=0;whiteSpace=wrap;html=1;" parent="1" vertex="1">
                    <mxGeometry x="100" y="1850" width="40" height="40" as="geometry"/>
                </mxCell>
                <mxCell id="2hBCnKZ2Ra70iL2cCZ0h-191" value="" style="rounded=0;whiteSpace=wrap;html=1;" parent="1" vertex="1">
                    <mxGeometry x="100" y="1900" width="40" height="40" as="geometry"/>
                </mxCell>
                <mxCell id="2hBCnKZ2Ra70iL2cCZ0h-192" value="" style="rounded=0;whiteSpace=wrap;html=1;" parent="1" vertex="1">
                    <mxGeometry x="100" y="1950" width="40" height="40" as="geometry"/>
                </mxCell>
                <mxCell id="2hBCnKZ2Ra70iL2cCZ0h-193" value="" style="rounded=0;whiteSpace=wrap;html=1;" parent="1" vertex="1">
                    <mxGeometry x="100" y="2000" width="40" height="40" as="geometry"/>
                </mxCell>
                <mxCell id="2hBCnKZ2Ra70iL2cCZ0h-194" value="" style="rounded=0;whiteSpace=wrap;html=1;" parent="1" vertex="1">
                    <mxGeometry x="220" y="1850" width="40" height="40" as="geometry"/>
                </mxCell>
                <mxCell id="2hBCnKZ2Ra70iL2cCZ0h-195" value="" style="rounded=0;whiteSpace=wrap;html=1;" parent="1" vertex="1">
                    <mxGeometry x="220" y="1900" width="40" height="40" as="geometry"/>
                </mxCell>
                <mxCell id="2hBCnKZ2Ra70iL2cCZ0h-196" value="" style="rounded=0;whiteSpace=wrap;html=1;" parent="1" vertex="1">
                    <mxGeometry x="220" y="1950" width="40" height="40" as="geometry"/>
                </mxCell>
                <mxCell id="2hBCnKZ2Ra70iL2cCZ0h-197" value="" style="rounded=0;whiteSpace=wrap;html=1;" parent="1" vertex="1">
                    <mxGeometry x="220" y="2000" width="40" height="40" as="geometry"/>
                </mxCell>
                <mxCell id="2hBCnKZ2Ra70iL2cCZ0h-198" value="Half BusWidth, Single Channel&lt;br&gt;64 Lanes, dual rank, &lt;br&gt;51.2GB/s up to 16GiB" style="text;html=1;align=center;verticalAlign=middle;resizable=0;points=[];autosize=1;strokeColor=none;fillColor=none;" parent="1" vertex="1">
                    <mxGeometry x="90" y="1760" width="190" height="60" as="geometry"/>
                </mxCell>
                <mxCell id="2hBCnKZ2Ra70iL2cCZ0h-204" value="" style="rounded=0;whiteSpace=wrap;html=1;fillColor=#dae8fc;strokeColor=#6c8ebf;" parent="1" vertex="1">
                    <mxGeometry x="100" y="1920" width="40" height="20" as="geometry"/>
                </mxCell>
                <mxCell id="2hBCnKZ2Ra70iL2cCZ0h-206" value="" style="rounded=0;whiteSpace=wrap;html=1;fillColor=#dae8fc;strokeColor=#6c8ebf;" parent="1" vertex="1">
                    <mxGeometry x="100" y="2020" width="40" height="20" as="geometry"/>
                </mxCell>
                <mxCell id="2hBCnKZ2Ra70iL2cCZ0h-208" value="" style="rounded=0;whiteSpace=wrap;html=1;fillColor=#fff2cc;strokeColor=#d6b656;" parent="1" vertex="1">
                    <mxGeometry x="220" y="1920" width="40" height="20" as="geometry"/>
                </mxCell>
                <mxCell id="2hBCnKZ2Ra70iL2cCZ0h-210" value="" style="rounded=0;whiteSpace=wrap;html=1;fillColor=#fff2cc;strokeColor=#d6b656;" parent="1" vertex="1">
                    <mxGeometry x="220" y="2020" width="40" height="20" as="geometry"/>
                </mxCell>
                <mxCell id="2hBCnKZ2Ra70iL2cCZ0h-212" value="" style="rounded=0;whiteSpace=wrap;html=1;fillColor=#f8cecc;strokeColor=#b85450;" parent="1" vertex="1">
                    <mxGeometry x="50" y="1925" width="40" height="20" as="geometry"/>
                </mxCell>
                <mxCell id="2hBCnKZ2Ra70iL2cCZ0h-214" value="" style="rounded=0;whiteSpace=wrap;html=1;fillColor=#f8cecc;strokeColor=#b85450;" parent="1" vertex="1">
                    <mxGeometry x="50" y="2025" width="40" height="20" as="geometry"/>
                </mxCell>
                <mxCell id="2hBCnKZ2Ra70iL2cCZ0h-220" value="" style="rounded=0;whiteSpace=wrap;html=1;fillColor=#f8cecc;strokeColor=#b85450;" parent="1" vertex="1">
                    <mxGeometry x="270" y="1910" width="40" height="20" as="geometry"/>
                </mxCell>
                <mxCell id="2hBCnKZ2Ra70iL2cCZ0h-222" value="" style="rounded=0;whiteSpace=wrap;html=1;fillColor=#f8cecc;strokeColor=#b85450;" parent="1" vertex="1">
                    <mxGeometry x="270" y="2010" width="40" height="20" as="geometry"/>
                </mxCell>
                <mxCell id="2hBCnKZ2Ra70iL2cCZ0h-228" value="" style="rounded=0;whiteSpace=wrap;html=1;fillColor=#f8cecc;strokeColor=#b85450;" parent="1" vertex="1">
                    <mxGeometry x="280" y="1920" width="40" height="20" as="geometry"/>
                </mxCell>
                <mxCell id="2hBCnKZ2Ra70iL2cCZ0h-230" value="" style="rounded=0;whiteSpace=wrap;html=1;fillColor=#f8cecc;strokeColor=#b85450;" parent="1" vertex="1">
                    <mxGeometry x="280" y="2020" width="40" height="20" as="geometry"/>
                </mxCell>
                <mxCell id="2hBCnKZ2Ra70iL2cCZ0h-232" value="" style="rounded=0;whiteSpace=wrap;html=1;fillColor=#dae8fc;strokeColor=#6c8ebf;" parent="1" vertex="1">
                    <mxGeometry x="460" y="1920" width="40" height="20" as="geometry"/>
                </mxCell>
                <mxCell id="2hBCnKZ2Ra70iL2cCZ0h-234" value="" style="rounded=0;whiteSpace=wrap;html=1;fillColor=#dae8fc;strokeColor=#6c8ebf;" parent="1" vertex="1">
                    <mxGeometry x="460" y="2020" width="40" height="20" as="geometry"/>
                </mxCell>
                <mxCell id="2hBCnKZ2Ra70iL2cCZ0h-236" value="" style="rounded=0;whiteSpace=wrap;html=1;fillColor=#fff2cc;strokeColor=#d6b656;" parent="1" vertex="1">
                    <mxGeometry x="580" y="1920" width="40" height="20" as="geometry"/>
                </mxCell>
                <mxCell id="2hBCnKZ2Ra70iL2cCZ0h-238" value="" style="rounded=0;whiteSpace=wrap;html=1;fillColor=#fff2cc;strokeColor=#d6b656;" parent="1" vertex="1">
                    <mxGeometry x="580" y="2020" width="40" height="20" as="geometry"/>
                </mxCell>
                <mxCell id="2hBCnKZ2Ra70iL2cCZ0h-240" value="" style="rounded=0;whiteSpace=wrap;html=1;fillColor=#f8cecc;strokeColor=#b85450;" parent="1" vertex="1">
                    <mxGeometry x="640" y="1920" width="40" height="20" as="geometry"/>
                </mxCell>
                <mxCell id="2hBCnKZ2Ra70iL2cCZ0h-242" value="" style="rounded=0;whiteSpace=wrap;html=1;fillColor=#f8cecc;strokeColor=#b85450;" parent="1" vertex="1">
                    <mxGeometry x="640" y="2020" width="40" height="20" as="geometry"/>
                </mxCell>
                <mxCell id="2hBCnKZ2Ra70iL2cCZ0h-244" value="" style="rounded=0;whiteSpace=wrap;html=1;fillColor=#f8cecc;strokeColor=#b85450;" parent="1" vertex="1">
                    <mxGeometry x="400" y="1920" width="40" height="20" as="geometry"/>
                </mxCell>
                <mxCell id="2hBCnKZ2Ra70iL2cCZ0h-246" value="" style="rounded=0;whiteSpace=wrap;html=1;fillColor=#f8cecc;strokeColor=#b85450;" parent="1" vertex="1">
                    <mxGeometry x="400" y="2020" width="40" height="20" as="geometry"/>
                </mxCell>
                <mxCell id="2hBCnKZ2Ra70iL2cCZ0h-291" value="" style="rounded=0;whiteSpace=wrap;html=1;" parent="1" vertex="1">
                    <mxGeometry x="120" y="580" width="120" height="210" as="geometry"/>
                </mxCell>
                <mxCell id="2hBCnKZ2Ra70iL2cCZ0h-292" value="" style="rounded=0;whiteSpace=wrap;html=1;" parent="1" vertex="1">
                    <mxGeometry x="100" y="590" width="40" height="40" as="geometry"/>
                </mxCell>
                <mxCell id="2hBCnKZ2Ra70iL2cCZ0h-293" value="1" style="rounded=0;whiteSpace=wrap;html=1;fillColor=#dae8fc;strokeColor=#6c8ebf;" parent="1" vertex="1">
                    <mxGeometry x="100" y="640" width="40" height="40" as="geometry"/>
                </mxCell>
                <mxCell id="2hBCnKZ2Ra70iL2cCZ0h-294" value="" style="rounded=0;whiteSpace=wrap;html=1;" parent="1" vertex="1">
                    <mxGeometry x="100" y="690" width="40" height="40" as="geometry"/>
                </mxCell>
                <mxCell id="2hBCnKZ2Ra70iL2cCZ0h-295" value="0" style="rounded=0;whiteSpace=wrap;html=1;fillColor=#dae8fc;strokeColor=#6c8ebf;" parent="1" vertex="1">
                    <mxGeometry x="100" y="740" width="40" height="40" as="geometry"/>
                </mxCell>
                <mxCell id="2hBCnKZ2Ra70iL2cCZ0h-296" value="" style="rounded=0;whiteSpace=wrap;html=1;" parent="1" vertex="1">
                    <mxGeometry x="220" y="590" width="40" height="40" as="geometry"/>
                </mxCell>
                <mxCell id="2hBCnKZ2Ra70iL2cCZ0h-297" value="1" style="rounded=0;whiteSpace=wrap;html=1;fillColor=#fff2cc;strokeColor=#d6b656;" parent="1" vertex="1">
                    <mxGeometry x="220" y="640" width="40" height="40" as="geometry"/>
                </mxCell>
                <mxCell id="2hBCnKZ2Ra70iL2cCZ0h-298" value="" style="rounded=0;whiteSpace=wrap;html=1;" parent="1" vertex="1">
                    <mxGeometry x="220" y="690" width="40" height="40" as="geometry"/>
                </mxCell>
                <mxCell id="2hBCnKZ2Ra70iL2cCZ0h-299" value="0" style="rounded=0;whiteSpace=wrap;html=1;fillColor=#fff2cc;strokeColor=#d6b656;" parent="1" vertex="1">
                    <mxGeometry x="220" y="740" width="40" height="40" as="geometry"/>
                </mxCell>
                <mxCell id="2hBCnKZ2Ra70iL2cCZ0h-301" value="" style="rounded=0;whiteSpace=wrap;html=1;fillColor=#f8cecc;strokeColor=#b85450;" parent="1" vertex="1">
                    <mxGeometry x="40" y="635" width="40" height="40" as="geometry"/>
                </mxCell>
                <mxCell id="2hBCnKZ2Ra70iL2cCZ0h-303" value="" style="rounded=0;whiteSpace=wrap;html=1;fillColor=#f8cecc;strokeColor=#b85450;" parent="1" vertex="1">
                    <mxGeometry x="40" y="735" width="40" height="40" as="geometry"/>
                </mxCell>
                <mxCell id="2hBCnKZ2Ra70iL2cCZ0h-304" value="Full BusWidth, Dual Channel&lt;br&gt;128 Lanes, dual rank, &lt;br&gt;102.4GB/s up to 32GiB" style="text;html=1;align=center;verticalAlign=middle;resizable=0;points=[];autosize=1;strokeColor=none;fillColor=none;" parent="1" vertex="1">
                    <mxGeometry x="95" y="500" width="180" height="60" as="geometry"/>
                </mxCell>
                <mxCell id="2hBCnKZ2Ra70iL2cCZ0h-305" value="" style="rounded=0;whiteSpace=wrap;html=1;" parent="1" vertex="1">
                    <mxGeometry x="480" y="580" width="120" height="210" as="geometry"/>
                </mxCell>
                <mxCell id="2hBCnKZ2Ra70iL2cCZ0h-306" value="" style="rounded=0;whiteSpace=wrap;html=1;" parent="1" vertex="1">
                    <mxGeometry x="460" y="590" width="40" height="40" as="geometry"/>
                </mxCell>
                <mxCell id="2hBCnKZ2Ra70iL2cCZ0h-307" value="1" style="rounded=0;whiteSpace=wrap;html=1;fillColor=#dae8fc;strokeColor=#6c8ebf;" parent="1" vertex="1">
                    <mxGeometry x="460" y="640" width="40" height="40" as="geometry"/>
                </mxCell>
                <mxCell id="2hBCnKZ2Ra70iL2cCZ0h-308" value="" style="rounded=0;whiteSpace=wrap;html=1;" parent="1" vertex="1">
                    <mxGeometry x="460" y="690" width="40" height="40" as="geometry"/>
                </mxCell>
                <mxCell id="2hBCnKZ2Ra70iL2cCZ0h-309" value="0" style="rounded=0;whiteSpace=wrap;html=1;fillColor=#dae8fc;strokeColor=#6c8ebf;" parent="1" vertex="1">
                    <mxGeometry x="460" y="740" width="40" height="40" as="geometry"/>
                </mxCell>
                <mxCell id="2hBCnKZ2Ra70iL2cCZ0h-310" value="" style="rounded=0;whiteSpace=wrap;html=1;" parent="1" vertex="1">
                    <mxGeometry x="580" y="590" width="40" height="40" as="geometry"/>
                </mxCell>
                <mxCell id="2hBCnKZ2Ra70iL2cCZ0h-311" value="1" style="rounded=0;whiteSpace=wrap;html=1;fillColor=#fff2cc;strokeColor=#d6b656;" parent="1" vertex="1">
                    <mxGeometry x="580" y="640" width="40" height="40" as="geometry"/>
                </mxCell>
                <mxCell id="2hBCnKZ2Ra70iL2cCZ0h-312" value="" style="rounded=0;whiteSpace=wrap;html=1;" parent="1" vertex="1">
                    <mxGeometry x="580" y="690" width="40" height="40" as="geometry"/>
                </mxCell>
                <mxCell id="2hBCnKZ2Ra70iL2cCZ0h-313" value="0" style="rounded=0;whiteSpace=wrap;html=1;fillColor=#fff2cc;strokeColor=#d6b656;" parent="1" vertex="1">
                    <mxGeometry x="580" y="740" width="40" height="40" as="geometry"/>
                </mxCell>
                <mxCell id="2hBCnKZ2Ra70iL2cCZ0h-315" value="" style="rounded=0;whiteSpace=wrap;html=1;fillColor=#f8cecc;strokeColor=#b85450;" parent="1" vertex="1">
                    <mxGeometry x="400" y="640" width="40" height="40" as="geometry"/>
                </mxCell>
                <mxCell id="2hBCnKZ2Ra70iL2cCZ0h-317" value="" style="rounded=0;whiteSpace=wrap;html=1;fillColor=#f8cecc;strokeColor=#b85450;" parent="1" vertex="1">
                    <mxGeometry x="400" y="740" width="40" height="40" as="geometry"/>
                </mxCell>
                <mxCell id="2hBCnKZ2Ra70iL2cCZ0h-319" value="" style="rounded=0;whiteSpace=wrap;html=1;fillColor=#f8cecc;strokeColor=#b85450;" parent="1" vertex="1">
                    <mxGeometry x="640" y="640" width="40" height="40" as="geometry"/>
                </mxCell>
                <mxCell id="2hBCnKZ2Ra70iL2cCZ0h-321" value="" style="rounded=0;whiteSpace=wrap;html=1;fillColor=#f8cecc;strokeColor=#b85450;" parent="1" vertex="1">
                    <mxGeometry x="640" y="740" width="40" height="40" as="geometry"/>
                </mxCell>
                <mxCell id="2hBCnKZ2Ra70iL2cCZ0h-323" value="" style="rounded=0;whiteSpace=wrap;html=1;fillColor=#f8cecc;strokeColor=#b85450;" parent="1" vertex="1">
                    <mxGeometry x="50" y="645" width="40" height="40" as="geometry"/>
                </mxCell>
                <mxCell id="2hBCnKZ2Ra70iL2cCZ0h-325" value="" style="rounded=0;whiteSpace=wrap;html=1;fillColor=#f8cecc;strokeColor=#b85450;" parent="1" vertex="1">
                    <mxGeometry x="50" y="745" width="40" height="40" as="geometry"/>
                </mxCell>
                <mxCell id="2hBCnKZ2Ra70iL2cCZ0h-327" value="" style="rounded=0;whiteSpace=wrap;html=1;fillColor=#f8cecc;strokeColor=#b85450;" parent="1" vertex="1">
                    <mxGeometry x="280" y="635" width="40" height="40" as="geometry"/>
                </mxCell>
                <mxCell id="2hBCnKZ2Ra70iL2cCZ0h-329" value="" style="rounded=0;whiteSpace=wrap;html=1;fillColor=#f8cecc;strokeColor=#b85450;" parent="1" vertex="1">
                    <mxGeometry x="280" y="735" width="40" height="40" as="geometry"/>
                </mxCell>
                <mxCell id="2hBCnKZ2Ra70iL2cCZ0h-331" value="" style="rounded=0;whiteSpace=wrap;html=1;fillColor=#f8cecc;strokeColor=#b85450;" parent="1" vertex="1">
                    <mxGeometry x="290" y="645" width="40" height="40" as="geometry"/>
                </mxCell>
                <mxCell id="2hBCnKZ2Ra70iL2cCZ0h-333" value="" style="rounded=0;whiteSpace=wrap;html=1;fillColor=#f8cecc;strokeColor=#b85450;" parent="1" vertex="1">
                    <mxGeometry x="290" y="745" width="40" height="40" as="geometry"/>
                </mxCell>
                <mxCell id="2hBCnKZ2Ra70iL2cCZ0h-334" value="Full BusWidth, Dual Channel&lt;br&gt;128 Lanes, single rank, &lt;br&gt;102.4GB/s up to 16GiB" style="text;html=1;align=center;verticalAlign=middle;resizable=0;points=[];autosize=1;strokeColor=none;fillColor=none;" parent="1" vertex="1">
                    <mxGeometry x="450" y="500" width="180" height="60" as="geometry"/>
                </mxCell>
                <mxCell id="2hBCnKZ2Ra70iL2cCZ0h-335" value="" style="rounded=0;whiteSpace=wrap;html=1;" parent="1" vertex="1">
                    <mxGeometry x="120" y="890" width="120" height="210" as="geometry"/>
                </mxCell>
                <mxCell id="2hBCnKZ2Ra70iL2cCZ0h-336" value="" style="rounded=0;whiteSpace=wrap;html=1;" parent="1" vertex="1">
                    <mxGeometry x="100" y="900" width="40" height="40" as="geometry"/>
                </mxCell>
                <mxCell id="2hBCnKZ2Ra70iL2cCZ0h-337" value="" style="rounded=0;whiteSpace=wrap;html=1;" parent="1" vertex="1">
                    <mxGeometry x="100" y="950" width="40" height="40" as="geometry"/>
                </mxCell>
                <mxCell id="2hBCnKZ2Ra70iL2cCZ0h-338" value="" style="rounded=0;whiteSpace=wrap;html=1;" parent="1" vertex="1">
                    <mxGeometry x="100" y="1000" width="40" height="40" as="geometry"/>
                </mxCell>
                <mxCell id="2hBCnKZ2Ra70iL2cCZ0h-339" value="0" style="rounded=0;whiteSpace=wrap;html=1;fillColor=#dae8fc;strokeColor=#6c8ebf;" parent="1" vertex="1">
                    <mxGeometry x="100" y="1050" width="40" height="40" as="geometry"/>
                </mxCell>
                <mxCell id="2hBCnKZ2Ra70iL2cCZ0h-340" value="" style="rounded=0;whiteSpace=wrap;html=1;" parent="1" vertex="1">
                    <mxGeometry x="220" y="900" width="40" height="40" as="geometry"/>
                </mxCell>
                <mxCell id="2hBCnKZ2Ra70iL2cCZ0h-341" value="" style="rounded=0;whiteSpace=wrap;html=1;" parent="1" vertex="1">
                    <mxGeometry x="220" y="950" width="40" height="40" as="geometry"/>
                </mxCell>
                <mxCell id="2hBCnKZ2Ra70iL2cCZ0h-342" value="" style="rounded=0;whiteSpace=wrap;html=1;" parent="1" vertex="1">
                    <mxGeometry x="220" y="1000" width="40" height="40" as="geometry"/>
                </mxCell>
                <mxCell id="2hBCnKZ2Ra70iL2cCZ0h-343" value="0" style="rounded=0;whiteSpace=wrap;html=1;fillColor=#fff2cc;strokeColor=#d6b656;" parent="1" vertex="1">
                    <mxGeometry x="220" y="1050" width="40" height="40" as="geometry"/>
                </mxCell>
                <mxCell id="2hBCnKZ2Ra70iL2cCZ0h-347" value="" style="rounded=0;whiteSpace=wrap;html=1;fillColor=#f8cecc;strokeColor=#b85450;" parent="1" vertex="1">
                    <mxGeometry x="40" y="1045" width="40" height="40" as="geometry"/>
                </mxCell>
                <mxCell id="2hBCnKZ2Ra70iL2cCZ0h-348" value="Full BusWidth, Dual Channel&lt;br&gt;64 Lanes, dual rank, &lt;br&gt;51.2GB/s up to 16GiB" style="text;html=1;align=center;verticalAlign=middle;resizable=0;points=[];autosize=1;strokeColor=none;fillColor=none;" parent="1" vertex="1">
                    <mxGeometry x="95" y="810" width="180" height="60" as="geometry"/>
                </mxCell>
                <mxCell id="2hBCnKZ2Ra70iL2cCZ0h-349" value="" style="rounded=0;whiteSpace=wrap;html=1;" parent="1" vertex="1">
                    <mxGeometry x="480" y="890" width="120" height="210" as="geometry"/>
                </mxCell>
                <mxCell id="2hBCnKZ2Ra70iL2cCZ0h-350" value="" style="rounded=0;whiteSpace=wrap;html=1;" parent="1" vertex="1">
                    <mxGeometry x="460" y="900" width="40" height="40" as="geometry"/>
                </mxCell>
                <mxCell id="2hBCnKZ2Ra70iL2cCZ0h-351" value="" style="rounded=0;whiteSpace=wrap;html=1;" parent="1" vertex="1">
                    <mxGeometry x="460" y="950" width="40" height="40" as="geometry"/>
                </mxCell>
                <mxCell id="2hBCnKZ2Ra70iL2cCZ0h-352" value="" style="rounded=0;whiteSpace=wrap;html=1;" parent="1" vertex="1">
                    <mxGeometry x="460" y="1000" width="40" height="40" as="geometry"/>
                </mxCell>
                <mxCell id="2hBCnKZ2Ra70iL2cCZ0h-353" value="0" style="rounded=0;whiteSpace=wrap;html=1;fillColor=#dae8fc;strokeColor=#6c8ebf;" parent="1" vertex="1">
                    <mxGeometry x="460" y="1050" width="40" height="40" as="geometry"/>
                </mxCell>
                <mxCell id="2hBCnKZ2Ra70iL2cCZ0h-354" value="" style="rounded=0;whiteSpace=wrap;html=1;" parent="1" vertex="1">
                    <mxGeometry x="580" y="900" width="40" height="40" as="geometry"/>
                </mxCell>
                <mxCell id="2hBCnKZ2Ra70iL2cCZ0h-355" value="" style="rounded=0;whiteSpace=wrap;html=1;" parent="1" vertex="1">
                    <mxGeometry x="580" y="950" width="40" height="40" as="geometry"/>
                </mxCell>
                <mxCell id="2hBCnKZ2Ra70iL2cCZ0h-356" value="" style="rounded=0;whiteSpace=wrap;html=1;" parent="1" vertex="1">
                    <mxGeometry x="580" y="1000" width="40" height="40" as="geometry"/>
                </mxCell>
                <mxCell id="2hBCnKZ2Ra70iL2cCZ0h-357" value="0" style="rounded=0;whiteSpace=wrap;html=1;fillColor=#fff2cc;strokeColor=#d6b656;" parent="1" vertex="1">
                    <mxGeometry x="580" y="1050" width="40" height="40" as="geometry"/>
                </mxCell>
                <mxCell id="2hBCnKZ2Ra70iL2cCZ0h-361" value="" style="rounded=0;whiteSpace=wrap;html=1;fillColor=#f8cecc;strokeColor=#b85450;" parent="1" vertex="1">
                    <mxGeometry x="400" y="1050" width="40" height="40" as="geometry"/>
                </mxCell>
                <mxCell id="2hBCnKZ2Ra70iL2cCZ0h-365" value="" style="rounded=0;whiteSpace=wrap;html=1;fillColor=#f8cecc;strokeColor=#b85450;" parent="1" vertex="1">
                    <mxGeometry x="640" y="1050" width="40" height="40" as="geometry"/>
                </mxCell>
                <mxCell id="2hBCnKZ2Ra70iL2cCZ0h-369" value="" style="rounded=0;whiteSpace=wrap;html=1;fillColor=#f8cecc;strokeColor=#b85450;" parent="1" vertex="1">
                    <mxGeometry x="50" y="1055" width="40" height="40" as="geometry"/>
                </mxCell>
                <mxCell id="2hBCnKZ2Ra70iL2cCZ0h-373" value="" style="rounded=0;whiteSpace=wrap;html=1;fillColor=#f8cecc;strokeColor=#b85450;" parent="1" vertex="1">
                    <mxGeometry x="280" y="1045" width="40" height="40" as="geometry"/>
                </mxCell>
                <mxCell id="2hBCnKZ2Ra70iL2cCZ0h-377" value="" style="rounded=0;whiteSpace=wrap;html=1;fillColor=#f8cecc;strokeColor=#b85450;" parent="1" vertex="1">
                    <mxGeometry x="290" y="1055" width="40" height="40" as="geometry"/>
                </mxCell>
                <mxCell id="2hBCnKZ2Ra70iL2cCZ0h-378" value="Full BusWidth, Dual Channel&lt;br&gt;64 Lanes, single rank, &lt;br&gt;51.2GB/s up to 8GiB" style="text;html=1;align=center;verticalAlign=middle;resizable=0;points=[];autosize=1;strokeColor=none;fillColor=none;" parent="1" vertex="1">
                    <mxGeometry x="450" y="810" width="180" height="60" as="geometry"/>
                </mxCell>
                <mxCell id="2hBCnKZ2Ra70iL2cCZ0h-384" value="" style="rounded=0;whiteSpace=wrap;html=1;fillColor=#f8cecc;strokeColor=#b85450;" parent="1" vertex="1">
                    <mxGeometry x="40" y="2331" width="40" height="20" as="geometry"/>
                </mxCell>
                <mxCell id="2hBCnKZ2Ra70iL2cCZ0h-385" value="" style="rounded=0;whiteSpace=wrap;html=1;" parent="1" vertex="1">
                    <mxGeometry x="480" y="2156" width="120" height="210" as="geometry"/>
                </mxCell>
                <mxCell id="2hBCnKZ2Ra70iL2cCZ0h-386" value="" style="rounded=0;whiteSpace=wrap;html=1;" parent="1" vertex="1">
                    <mxGeometry x="460" y="2166" width="40" height="40" as="geometry"/>
                </mxCell>
                <mxCell id="2hBCnKZ2Ra70iL2cCZ0h-387" value="" style="rounded=0;whiteSpace=wrap;html=1;" parent="1" vertex="1">
                    <mxGeometry x="460" y="2216" width="40" height="40" as="geometry"/>
                </mxCell>
                <mxCell id="2hBCnKZ2Ra70iL2cCZ0h-388" value="" style="rounded=0;whiteSpace=wrap;html=1;" parent="1" vertex="1">
                    <mxGeometry x="460" y="2266" width="40" height="40" as="geometry"/>
                </mxCell>
                <mxCell id="2hBCnKZ2Ra70iL2cCZ0h-389" value="" style="rounded=0;whiteSpace=wrap;html=1;" parent="1" vertex="1">
                    <mxGeometry x="460" y="2316" width="40" height="40" as="geometry"/>
                </mxCell>
                <mxCell id="2hBCnKZ2Ra70iL2cCZ0h-390" value="" style="rounded=0;whiteSpace=wrap;html=1;" parent="1" vertex="1">
                    <mxGeometry x="580" y="2166" width="40" height="40" as="geometry"/>
                </mxCell>
                <mxCell id="2hBCnKZ2Ra70iL2cCZ0h-391" value="" style="rounded=0;whiteSpace=wrap;html=1;" parent="1" vertex="1">
                    <mxGeometry x="580" y="2216" width="40" height="40" as="geometry"/>
                </mxCell>
                <mxCell id="2hBCnKZ2Ra70iL2cCZ0h-392" value="" style="rounded=0;whiteSpace=wrap;html=1;" parent="1" vertex="1">
                    <mxGeometry x="580" y="2266" width="40" height="40" as="geometry"/>
                </mxCell>
                <mxCell id="2hBCnKZ2Ra70iL2cCZ0h-393" value="" style="rounded=0;whiteSpace=wrap;html=1;" parent="1" vertex="1">
                    <mxGeometry x="580" y="2316" width="40" height="40" as="geometry"/>
                </mxCell>
                <mxCell id="2hBCnKZ2Ra70iL2cCZ0h-402" value="Half BusWidth, Single Channel&lt;br&gt;32 Lanes, single rank, &lt;br&gt;25.6GB/s up to 4GiB" style="text;html=1;align=center;verticalAlign=middle;resizable=0;points=[];autosize=1;strokeColor=none;fillColor=none;" parent="1" vertex="1">
                    <mxGeometry x="445" y="2076" width="190" height="60" as="geometry"/>
                </mxCell>
                <mxCell id="2hBCnKZ2Ra70iL2cCZ0h-403" value="" style="rounded=0;whiteSpace=wrap;html=1;" parent="1" vertex="1">
                    <mxGeometry x="120" y="2156" width="120" height="210" as="geometry"/>
                </mxCell>
                <mxCell id="2hBCnKZ2Ra70iL2cCZ0h-404" value="" style="rounded=0;whiteSpace=wrap;html=1;" parent="1" vertex="1">
                    <mxGeometry x="100" y="2166" width="40" height="40" as="geometry"/>
                </mxCell>
                <mxCell id="2hBCnKZ2Ra70iL2cCZ0h-405" value="" style="rounded=0;whiteSpace=wrap;html=1;" parent="1" vertex="1">
                    <mxGeometry x="100" y="2216" width="40" height="40" as="geometry"/>
                </mxCell>
                <mxCell id="2hBCnKZ2Ra70iL2cCZ0h-406" value="" style="rounded=0;whiteSpace=wrap;html=1;" parent="1" vertex="1">
                    <mxGeometry x="100" y="2266" width="40" height="40" as="geometry"/>
                </mxCell>
                <mxCell id="2hBCnKZ2Ra70iL2cCZ0h-407" value="" style="rounded=0;whiteSpace=wrap;html=1;" parent="1" vertex="1">
                    <mxGeometry x="100" y="2316" width="40" height="40" as="geometry"/>
                </mxCell>
                <mxCell id="2hBCnKZ2Ra70iL2cCZ0h-408" value="" style="rounded=0;whiteSpace=wrap;html=1;" parent="1" vertex="1">
                    <mxGeometry x="220" y="2166" width="40" height="40" as="geometry"/>
                </mxCell>
                <mxCell id="2hBCnKZ2Ra70iL2cCZ0h-409" value="" style="rounded=0;whiteSpace=wrap;html=1;" parent="1" vertex="1">
                    <mxGeometry x="220" y="2216" width="40" height="40" as="geometry"/>
                </mxCell>
                <mxCell id="2hBCnKZ2Ra70iL2cCZ0h-410" value="" style="rounded=0;whiteSpace=wrap;html=1;" parent="1" vertex="1">
                    <mxGeometry x="220" y="2266" width="40" height="40" as="geometry"/>
                </mxCell>
                <mxCell id="2hBCnKZ2Ra70iL2cCZ0h-411" value="" style="rounded=0;whiteSpace=wrap;html=1;" parent="1" vertex="1">
                    <mxGeometry x="220" y="2316" width="40" height="40" as="geometry"/>
                </mxCell>
                <mxCell id="2hBCnKZ2Ra70iL2cCZ0h-412" value="Half BusWidth, Single Channel&lt;br&gt;32 Lanes, dual rank, &lt;br&gt;25.6GB/s up to 8GiB" style="text;html=1;align=center;verticalAlign=middle;resizable=0;points=[];autosize=1;strokeColor=none;fillColor=none;" parent="1" vertex="1">
                    <mxGeometry x="90" y="2076" width="190" height="60" as="geometry"/>
                </mxCell>
                <mxCell id="2hBCnKZ2Ra70iL2cCZ0h-418" value="" style="rounded=0;whiteSpace=wrap;html=1;fillColor=#dae8fc;strokeColor=#6c8ebf;" parent="1" vertex="1">
                    <mxGeometry x="100" y="2336" width="40" height="20" as="geometry"/>
                </mxCell>
                <mxCell id="2hBCnKZ2Ra70iL2cCZ0h-420" value="" style="rounded=0;whiteSpace=wrap;html=1;fillColor=#fff2cc;strokeColor=#d6b656;" parent="1" vertex="1">
                    <mxGeometry x="220" y="2336" width="40" height="20" as="geometry"/>
                </mxCell>
                <mxCell id="2hBCnKZ2Ra70iL2cCZ0h-422" value="" style="rounded=0;whiteSpace=wrap;html=1;fillColor=#f8cecc;strokeColor=#b85450;" parent="1" vertex="1">
                    <mxGeometry x="50" y="2341" width="40" height="20" as="geometry"/>
                </mxCell>
                <mxCell id="2hBCnKZ2Ra70iL2cCZ0h-428" value="" style="rounded=0;whiteSpace=wrap;html=1;fillColor=#f8cecc;strokeColor=#b85450;" parent="1" vertex="1">
                    <mxGeometry x="270" y="2326" width="40" height="20" as="geometry"/>
                </mxCell>
                <mxCell id="2hBCnKZ2Ra70iL2cCZ0h-434" value="" style="rounded=0;whiteSpace=wrap;html=1;fillColor=#f8cecc;strokeColor=#b85450;" parent="1" vertex="1">
                    <mxGeometry x="280" y="2336" width="40" height="20" as="geometry"/>
                </mxCell>
                <mxCell id="2hBCnKZ2Ra70iL2cCZ0h-436" value="" style="rounded=0;whiteSpace=wrap;html=1;fillColor=#dae8fc;strokeColor=#6c8ebf;" parent="1" vertex="1">
                    <mxGeometry x="460" y="2336" width="40" height="20" as="geometry"/>
                </mxCell>
                <mxCell id="2hBCnKZ2Ra70iL2cCZ0h-438" value="" style="rounded=0;whiteSpace=wrap;html=1;fillColor=#fff2cc;strokeColor=#d6b656;" parent="1" vertex="1">
                    <mxGeometry x="580" y="2336" width="40" height="20" as="geometry"/>
                </mxCell>
                <mxCell id="2hBCnKZ2Ra70iL2cCZ0h-440" value="" style="rounded=0;whiteSpace=wrap;html=1;fillColor=#f8cecc;strokeColor=#b85450;" parent="1" vertex="1">
                    <mxGeometry x="640" y="2336" width="40" height="20" as="geometry"/>
                </mxCell>
                <mxCell id="2hBCnKZ2Ra70iL2cCZ0h-442" value="" style="rounded=0;whiteSpace=wrap;html=1;fillColor=#f8cecc;strokeColor=#b85450;" parent="1" vertex="1">
                    <mxGeometry x="400" y="2336" width="40" height="20" as="geometry"/>
                </mxCell>
                <mxCell id="2hBCnKZ2Ra70iL2cCZ0h-443" value="or (pick any controller)" style="text;html=1;align=center;verticalAlign=middle;resizable=0;points=[];autosize=1;strokeColor=none;fillColor=none;" parent="1" vertex="1">
                    <mxGeometry x="290" y="1130" width="140" height="30" as="geometry"/>
                </mxCell>
                <mxCell id="2hBCnKZ2Ra70iL2cCZ0h-444" value="" style="rounded=0;whiteSpace=wrap;html=1;" parent="1" vertex="1">
                    <mxGeometry x="120" y="1218" width="120" height="210" as="geometry"/>
                </mxCell>
                <mxCell id="2hBCnKZ2Ra70iL2cCZ0h-445" value="" style="rounded=0;whiteSpace=wrap;html=1;" parent="1" vertex="1">
                    <mxGeometry x="100" y="1228" width="40" height="40" as="geometry"/>
                </mxCell>
                <mxCell id="2hBCnKZ2Ra70iL2cCZ0h-446" value="1" style="rounded=0;whiteSpace=wrap;html=1;fillColor=#dae8fc;strokeColor=#6c8ebf;" parent="1" vertex="1">
                    <mxGeometry x="100" y="1278" width="40" height="40" as="geometry"/>
                </mxCell>
                <mxCell id="2hBCnKZ2Ra70iL2cCZ0h-447" value="" style="rounded=0;whiteSpace=wrap;html=1;" parent="1" vertex="1">
                    <mxGeometry x="100" y="1328" width="40" height="40" as="geometry"/>
                </mxCell>
                <mxCell id="2hBCnKZ2Ra70iL2cCZ0h-448" value="" style="rounded=0;whiteSpace=wrap;html=1;" parent="1" vertex="1">
                    <mxGeometry x="100" y="1378" width="40" height="40" as="geometry"/>
                </mxCell>
                <mxCell id="2hBCnKZ2Ra70iL2cCZ0h-449" value="" style="rounded=0;whiteSpace=wrap;html=1;" parent="1" vertex="1">
                    <mxGeometry x="220" y="1228" width="40" height="40" as="geometry"/>
                </mxCell>
                <mxCell id="2hBCnKZ2Ra70iL2cCZ0h-450" value="1" style="rounded=0;whiteSpace=wrap;html=1;fillColor=#fff2cc;strokeColor=#d6b656;" parent="1" vertex="1">
                    <mxGeometry x="220" y="1278" width="40" height="40" as="geometry"/>
                </mxCell>
                <mxCell id="2hBCnKZ2Ra70iL2cCZ0h-451" value="" style="rounded=0;whiteSpace=wrap;html=1;" parent="1" vertex="1">
                    <mxGeometry x="220" y="1328" width="40" height="40" as="geometry"/>
                </mxCell>
                <mxCell id="2hBCnKZ2Ra70iL2cCZ0h-452" value="" style="rounded=0;whiteSpace=wrap;html=1;" parent="1" vertex="1">
                    <mxGeometry x="220" y="1378" width="40" height="40" as="geometry"/>
                </mxCell>
                <mxCell id="2hBCnKZ2Ra70iL2cCZ0h-454" value="" style="rounded=0;whiteSpace=wrap;html=1;fillColor=#f8cecc;strokeColor=#b85450;" parent="1" vertex="1">
                    <mxGeometry x="40" y="1273" width="40" height="40" as="geometry"/>
                </mxCell>
                <mxCell id="2hBCnKZ2Ra70iL2cCZ0h-457" value="Full BusWidth, Dual Channel&lt;br&gt;64 Lanes, dual rank, &lt;br&gt;51.2GB/s up to 16GiB" style="text;html=1;align=center;verticalAlign=middle;resizable=0;points=[];autosize=1;strokeColor=none;fillColor=none;" parent="1" vertex="1">
                    <mxGeometry x="95" y="1138" width="180" height="60" as="geometry"/>
                </mxCell>
                <mxCell id="2hBCnKZ2Ra70iL2cCZ0h-458" value="" style="rounded=0;whiteSpace=wrap;html=1;" parent="1" vertex="1">
                    <mxGeometry x="480" y="1218" width="120" height="210" as="geometry"/>
                </mxCell>
                <mxCell id="2hBCnKZ2Ra70iL2cCZ0h-459" value="" style="rounded=0;whiteSpace=wrap;html=1;" parent="1" vertex="1">
                    <mxGeometry x="460" y="1228" width="40" height="40" as="geometry"/>
                </mxCell>
                <mxCell id="2hBCnKZ2Ra70iL2cCZ0h-460" value="1" style="rounded=0;whiteSpace=wrap;html=1;fillColor=#dae8fc;strokeColor=#6c8ebf;" parent="1" vertex="1">
                    <mxGeometry x="460" y="1278" width="40" height="40" as="geometry"/>
                </mxCell>
                <mxCell id="2hBCnKZ2Ra70iL2cCZ0h-461" value="" style="rounded=0;whiteSpace=wrap;html=1;" parent="1" vertex="1">
                    <mxGeometry x="460" y="1328" width="40" height="40" as="geometry"/>
                </mxCell>
                <mxCell id="2hBCnKZ2Ra70iL2cCZ0h-462" value="" style="rounded=0;whiteSpace=wrap;html=1;" parent="1" vertex="1">
                    <mxGeometry x="460" y="1378" width="40" height="40" as="geometry"/>
                </mxCell>
                <mxCell id="2hBCnKZ2Ra70iL2cCZ0h-463" value="" style="rounded=0;whiteSpace=wrap;html=1;" parent="1" vertex="1">
                    <mxGeometry x="580" y="1228" width="40" height="40" as="geometry"/>
                </mxCell>
                <mxCell id="2hBCnKZ2Ra70iL2cCZ0h-464" value="1" style="rounded=0;whiteSpace=wrap;html=1;fillColor=#fff2cc;strokeColor=#d6b656;" parent="1" vertex="1">
                    <mxGeometry x="580" y="1278" width="40" height="40" as="geometry"/>
                </mxCell>
                <mxCell id="2hBCnKZ2Ra70iL2cCZ0h-465" value="" style="rounded=0;whiteSpace=wrap;html=1;" parent="1" vertex="1">
                    <mxGeometry x="580" y="1328" width="40" height="40" as="geometry"/>
                </mxCell>
                <mxCell id="2hBCnKZ2Ra70iL2cCZ0h-466" value="" style="rounded=0;whiteSpace=wrap;html=1;" parent="1" vertex="1">
                    <mxGeometry x="580" y="1378" width="40" height="40" as="geometry"/>
                </mxCell>
                <mxCell id="2hBCnKZ2Ra70iL2cCZ0h-468" value="" style="rounded=0;whiteSpace=wrap;html=1;fillColor=#f8cecc;strokeColor=#b85450;" parent="1" vertex="1">
                    <mxGeometry x="400" y="1278" width="40" height="40" as="geometry"/>
                </mxCell>
                <mxCell id="2hBCnKZ2Ra70iL2cCZ0h-472" value="" style="rounded=0;whiteSpace=wrap;html=1;fillColor=#f8cecc;strokeColor=#b85450;" parent="1" vertex="1">
                    <mxGeometry x="640" y="1278" width="40" height="40" as="geometry"/>
                </mxCell>
                <mxCell id="2hBCnKZ2Ra70iL2cCZ0h-476" value="" style="rounded=0;whiteSpace=wrap;html=1;fillColor=#f8cecc;strokeColor=#b85450;" parent="1" vertex="1">
                    <mxGeometry x="50" y="1283" width="40" height="40" as="geometry"/>
                </mxCell>
                <mxCell id="2hBCnKZ2Ra70iL2cCZ0h-480" value="" style="rounded=0;whiteSpace=wrap;html=1;fillColor=#f8cecc;strokeColor=#b85450;" parent="1" vertex="1">
                    <mxGeometry x="280" y="1273" width="40" height="40" as="geometry"/>
                </mxCell>
                <mxCell id="2hBCnKZ2Ra70iL2cCZ0h-484" value="" style="rounded=0;whiteSpace=wrap;html=1;fillColor=#f8cecc;strokeColor=#b85450;" parent="1" vertex="1">
                    <mxGeometry x="290" y="1283" width="40" height="40" as="geometry"/>
                </mxCell>
                <mxCell id="2hBCnKZ2Ra70iL2cCZ0h-487" value="Full BusWidth, Dual Channel&lt;br&gt;64 Lanes, single rank, &lt;br&gt;51.2GB/s up to 8GiB" style="text;html=1;align=center;verticalAlign=middle;resizable=0;points=[];autosize=1;strokeColor=none;fillColor=none;" parent="1" vertex="1">
                    <mxGeometry x="450" y="1138" width="180" height="60" as="geometry"/>
                </mxCell>
                <mxCell id="2hBCnKZ2Ra70iL2cCZ0h-493" value="&lt;b&gt;2x4 interleaving &lt;/b&gt;&lt;br&gt;4x2 interleaving&lt;div&gt;contiguous&lt;/div&gt;" style="text;html=1;align=center;verticalAlign=middle;resizable=0;points=[];autosize=1;strokeColor=none;fillColor=none;" parent="1" vertex="1">
                    <mxGeometry x="305" y="185" width="110" height="60" as="geometry"/>
                </mxCell>
                <mxCell id="2hBCnKZ2Ra70iL2cCZ0h-494" value="&lt;b&gt;4x2 interleaving&lt;/b&gt;&lt;div&gt;contiguous&lt;/div&gt;" style="text;html=1;align=center;verticalAlign=middle;resizable=0;points=[];autosize=1;strokeColor=none;fillColor=none;" parent="1" vertex="1">
                    <mxGeometry x="310" y="510" width="110" height="40" as="geometry"/>
                </mxCell>
                <mxCell id="2hBCnKZ2Ra70iL2cCZ0h-495" value="&lt;div&gt;&lt;b&gt;contiguous&lt;/b&gt;&lt;/div&gt;" style="text;html=1;align=center;verticalAlign=middle;resizable=0;points=[];autosize=1;strokeColor=none;fillColor=none;" parent="1" vertex="1">
                    <mxGeometry x="320" y="845" width="90" height="30" as="geometry"/>
                </mxCell>
                <mxCell id="2hBCnKZ2Ra70iL2cCZ0h-496" value="&lt;div&gt;&lt;b&gt;contiguous&lt;/b&gt;&lt;/div&gt;" style="text;html=1;align=center;verticalAlign=middle;resizable=0;points=[];autosize=1;strokeColor=none;fillColor=none;" parent="1" vertex="1">
                    <mxGeometry x="320" y="1198" width="90" height="30" as="geometry"/>
                </mxCell>
                <mxCell id="2hBCnKZ2Ra70iL2cCZ0h-505" value="&lt;b&gt;2x4 interleaving &lt;/b&gt;&lt;br&gt;4x2 interleaving&lt;div&gt;contiguous&lt;/div&gt;" style="text;html=1;align=center;verticalAlign=middle;resizable=0;points=[];autosize=1;strokeColor=none;fillColor=none;" parent="1" vertex="1">
                    <mxGeometry x="305" y="1470" width="110" height="60" as="geometry"/>
                </mxCell>
                <mxCell id="2hBCnKZ2Ra70iL2cCZ0h-506" value="&lt;b&gt;4x2 interleaving&lt;/b&gt;&lt;div&gt;contiguous&lt;/div&gt;" style="text;html=1;align=center;verticalAlign=middle;resizable=0;points=[];autosize=1;strokeColor=none;fillColor=none;" parent="1" vertex="1">
                    <mxGeometry x="310" y="1795" width="110" height="40" as="geometry"/>
                </mxCell>
                <mxCell id="2hBCnKZ2Ra70iL2cCZ0h-507" value="&lt;div&gt;&lt;b&gt;contiguous&lt;/b&gt;&lt;/div&gt;" style="text;html=1;align=center;verticalAlign=middle;resizable=0;points=[];autosize=1;strokeColor=none;fillColor=none;" parent="1" vertex="1">
                    <mxGeometry x="320" y="2130" width="90" height="30" as="geometry"/>
                </mxCell>
                <mxCell id="mr4Ghq74EwGRtPclP2I0-1" value="" style="rounded=0;whiteSpace=wrap;html=1;fillColor=#dae8fc;strokeColor=#6c8ebf;" parent="1" vertex="1">
                    <mxGeometry x="500" y="60" width="40" height="40" as="geometry"/>
                </mxCell>
                <mxCell id="mr4Ghq74EwGRtPclP2I0-3" value="" style="rounded=0;whiteSpace=wrap;html=1;fillColor=#f8cecc;strokeColor=#b85450;" parent="1" vertex="1">
                    <mxGeometry x="80" y="110" width="40" height="40" as="geometry"/>
                </mxCell>
                <mxCell id="mr4Ghq74EwGRtPclP2I0-6" value="Single Rank, Dual Channel DRAM Device" style="text;html=1;strokeColor=none;fillColor=none;align=center;verticalAlign=middle;whiteSpace=wrap;rounded=0;" parent="1" vertex="1">
                    <mxGeometry x="140" y="120" width="140" height="40" as="geometry"/>
                </mxCell>
                <mxCell id="mr4Ghq74EwGRtPclP2I0-7" value="West-side DDR PHY" style="text;html=1;strokeColor=none;fillColor=none;align=center;verticalAlign=middle;whiteSpace=wrap;rounded=0;" parent="1" vertex="1">
                    <mxGeometry x="550" y="60" width="140" height="40" as="geometry"/>
                </mxCell>
                <mxCell id="mr4Ghq74EwGRtPclP2I0-8" value="" style="rounded=0;whiteSpace=wrap;html=1;fillColor=#fff2cc;strokeColor=#d6b656;" parent="1" vertex="1">
                    <mxGeometry x="500" y="120" width="40" height="40" as="geometry"/>
                </mxCell>
                <mxCell id="mr4Ghq74EwGRtPclP2I0-9" value="East-side DDR PHY" style="text;html=1;strokeColor=none;fillColor=none;align=center;verticalAlign=middle;whiteSpace=wrap;rounded=0;" parent="1" vertex="1">
                    <mxGeometry x="550" y="120" width="140" height="40" as="geometry"/>
                </mxCell>
                <mxCell id="mr4Ghq74EwGRtPclP2I0-10" value="" style="rounded=0;whiteSpace=wrap;html=1;fillColor=#f8cecc;strokeColor=#b85450;" parent="1" vertex="1">
                    <mxGeometry x="75" y="50" width="40" height="40" as="geometry"/>
                </mxCell>
                <mxCell id="mr4Ghq74EwGRtPclP2I0-11" value="" style="rounded=0;whiteSpace=wrap;html=1;fillColor=#f8cecc;strokeColor=#b85450;" parent="1" vertex="1">
                    <mxGeometry x="85" y="60" width="40" height="40" as="geometry"/>
                </mxCell>
                <mxCell id="mr4Ghq74EwGRtPclP2I0-12" value="Dual Rank, Dual Channel DRAM Device" style="text;html=1;strokeColor=none;fillColor=none;align=center;verticalAlign=middle;whiteSpace=wrap;rounded=0;" parent="1" vertex="1">
                    <mxGeometry x="135" y="60" width="140" height="40" as="geometry"/>
                </mxCell>
                <mxCell id="mr4Ghq74EwGRtPclP2I0-13" value="" style="rounded=0;whiteSpace=wrap;html=1;fillColor=#f8cecc;strokeColor=#b85450;" parent="1" vertex="1">
                    <mxGeometry x="290" y="70" width="40" height="20" as="geometry"/>
                </mxCell>
                <mxCell id="mr4Ghq74EwGRtPclP2I0-14" value="" style="rounded=0;whiteSpace=wrap;html=1;fillColor=#f8cecc;strokeColor=#b85450;" parent="1" vertex="1">
                    <mxGeometry x="300" y="80" width="40" height="20" as="geometry"/>
                </mxCell>
                <mxCell id="mr4Ghq74EwGRtPclP2I0-15" value="Dual Rank, Single Channel DRAM Device" style="text;html=1;strokeColor=none;fillColor=none;align=center;verticalAlign=middle;whiteSpace=wrap;rounded=0;" parent="1" vertex="1">
                    <mxGeometry x="350" y="60" width="140" height="40" as="geometry"/>
                </mxCell>
                <mxCell id="mr4Ghq74EwGRtPclP2I0-17" value="" style="rounded=0;whiteSpace=wrap;html=1;fillColor=#f8cecc;strokeColor=#b85450;" parent="1" vertex="1">
                    <mxGeometry x="300" y="140" width="40" height="20" as="geometry"/>
                </mxCell>
                <mxCell id="mr4Ghq74EwGRtPclP2I0-18" value="Single Rank, Single Channel DRAM Device" style="text;html=1;strokeColor=none;fillColor=none;align=center;verticalAlign=middle;whiteSpace=wrap;rounded=0;" parent="1" vertex="1">
                    <mxGeometry x="350" y="120" width="140" height="40" as="geometry"/>
                </mxCell>
            </root>
        </mxGraphModel>
    </diagram>
</mxfile>
